HIERARCHY
ROOT Hips
{
	OFFSET 0.000000 0.000000 0.000000
	CHANNELS 6 Xposition Yposition Zposition Zrotation Yrotation Xrotation 
	JOINT LHipJoint
	{
		OFFSET 0.000000 0.000000 0.000000
		CHANNELS 3 Zrotation Yrotation Xrotation
		JOINT LeftUpLeg
		{
			OFFSET 1.363060 -1.794630 0.839290
			CHANNELS 3 Zrotation Yrotation Xrotation
			JOINT LeftLeg
			{
				OFFSET 2.448110 -6.726130 0.000000
				CHANNELS 3 Zrotation Yrotation Xrotation
				JOINT LeftFoot
				{
					OFFSET 2.562200 -7.039590 0.000000
					CHANNELS 3 Zrotation Yrotation Xrotation
					JOINT LeftToeBase
					{
						OFFSET 0.157640 -0.433110 2.322550
						CHANNELS 3 Zrotation Yrotation Xrotation
						End Site
						{
							OFFSET 0.000000 0.000000 0.000000
						}
					}
				}
			}
		}
	}
	JOINT RHipJoint
	{
		OFFSET 0.000000 0.000000 0.000000
		CHANNELS 3 Zrotation Yrotation Xrotation
		JOINT RightUpLeg
		{
			OFFSET -1.305520 -1.794630 0.839290
			CHANNELS 3 Zrotation Yrotation Xrotation
			JOINT RightLeg
			{
				OFFSET -2.542530 -6.985550 0.000000
				CHANNELS 3 Zrotation Yrotation Xrotation
				JOINT RightFoot
				{
					OFFSET -2.568260 -7.056230 0.000000
					CHANNELS 3 Zrotation Yrotation Xrotation
					JOINT RightToeBase
					{
						OFFSET -0.164730 -0.452590 2.363150
						CHANNELS 3 Zrotation Yrotation Xrotation
						End Site
						{
							OFFSET 0.000000 0.000000 0.000000
						}
					}
				}
			}
		}
	}
	JOINT LowerBack
	{
		OFFSET 0.000000 0.000000 0.000000
		CHANNELS 3 Zrotation Yrotation Xrotation
		JOINT Spine
		{
			OFFSET 0.028270 2.035590 -0.193380
			CHANNELS 3 Zrotation Yrotation Xrotation
			JOINT Spine1
			{
				OFFSET 0.056720 2.048850 -0.042750
				CHANNELS 3 Zrotation Yrotation Xrotation
				JOINT Neck
				{
					OFFSET 0.000000 0.000000 0.000000
					CHANNELS 3 Zrotation Yrotation Xrotation
					JOINT Neck1
					{
						OFFSET -0.054170 1.746240 0.172020
						CHANNELS 3 Zrotation Yrotation Xrotation
						JOINT Head
						{
							OFFSET 0.104070 1.761360 -0.123970
							CHANNELS 3 Zrotation Yrotation Xrotation
							End Site
							{
								OFFSET 0.000000 0.000000 0.000000
							}
						}
					}
				}
				JOINT LeftShoulder
				{
					OFFSET 0.000000 0.000000 0.000000
					CHANNELS 3 Zrotation Yrotation Xrotation
					JOINT LeftArm
					{
						OFFSET 3.362410 1.200890 -0.311210
						CHANNELS 3 Zrotation Yrotation Xrotation
						JOINT LeftForeArm
						{
							OFFSET 4.983000 -0.000000 -0.000000
							CHANNELS 3 Zrotation Yrotation Xrotation
							JOINT LeftHand
							{
								OFFSET 3.483560 -0.000000 -0.000000
								CHANNELS 3 Zrotation Yrotation Xrotation
								JOINT LeftFingerBase
								{
									OFFSET 0.000000 0.000000 0.000000
									CHANNELS 3 Zrotation Yrotation Xrotation
									JOINT LeftHandIndex1
									{
										OFFSET 0.715260 -0.000000 -0.000000
										CHANNELS 3 Zrotation Yrotation Xrotation
										End Site
										{
											OFFSET 0.000000 0.000000 0.000000
										}
									}
								}
								JOINT LThumb
								{
									OFFSET 0.000000 0.000000 0.000000
									CHANNELS 3 Zrotation Yrotation Xrotation
									End Site
									{
										OFFSET 0.000000 0.000000 0.000000
									}
								}
							}
						}
					}
				}
				JOINT RightShoulder
				{
					OFFSET 0.000000 0.000000 0.000000
					CHANNELS 3 Zrotation Yrotation Xrotation
					JOINT RightArm
					{
						OFFSET -3.136600 1.374050 -0.404650
						CHANNELS 3 Zrotation Yrotation Xrotation
						JOINT RightForeArm
						{
							OFFSET -5.241900 -0.000000 -0.000000
							CHANNELS 3 Zrotation Yrotation Xrotation
							JOINT RightHand
							{
								OFFSET -3.444170 -0.000000 -0.000000
								CHANNELS 3 Zrotation Yrotation Xrotation
								JOINT RightFingerBase
								{
									OFFSET 0.000000 0.000000 0.000000
									CHANNELS 3 Zrotation Yrotation Xrotation
									JOINT RightHandIndex1
									{
										OFFSET -0.622530 -0.000000 -0.000000
										CHANNELS 3 Zrotation Yrotation Xrotation
										End Site
										{
											OFFSET 0.000000 0.000000 0.000000
										}
									}
								}
								JOINT RThumb
								{
									OFFSET 0.000000 0.000000 0.000000
									CHANNELS 3 Zrotation Yrotation Xrotation
									End Site
									{
										OFFSET 0.000000 0.000000 0.000000
									}
								}
							}
						}
					}
				}
			}
		}
	}
}
MOTION
Frames: 12
Frame Time: 0.008333
3.340651 16.965699 -0.106734 164.285099 -83.609798 -157.319012 -11.123839 1.771885 0.734978 -2.839823 15.969181 -16.934681 -1.368157 -0.053569 18.934898 2.593939 17.399355 -5.004555 0.894500 -0.000001 -47.030700 10.003394 -1.819743 2.870218 0.851849 -0.193144 -18.227440 1.255924 -1.155076 26.921357 -1.401803 -5.097874 -9.419279 -0.023800 0.000001 -66.538900 -3.740292 -1.854840 -5.712242 -0.997273 -1.711501 -3.600449 -3.904851 -1.792923 1.291529 10.904448 -18.049290 -10.862475 -0.990616 -0.030509 -0.803349 0.000000 0.000000 0.000000 13.829418 13.641964 0.479391 -38.887333 7.758784 -14.062637 -179.289522 -60.299355 179.985230 1.547391 -4.621628 -0.070502 -0.007072 0.614482 -0.000000 0.000000 0.000000 0.000000 0.000000 0.000000 0.000000 3.609229 -11.102498 -1.141595 24.704240 27.305715 -13.813945 -179.516026 66.568918 179.865043 -14.200330 6.062028 -0.857758 0.287788 -0.690162 -0.000000 0.000000 0.000000 0.000000 0.000000 0.000000 0.000000 
3.336623 16.953079 -0.085284 168.765885 -81.523023 -161.690928 -11.210194 1.796464 0.510701 -2.873577 17.072826 -16.938122 -1.398583 0.004866 19.403108 2.737502 18.228594 -5.492580 0.785000 0.000000 -46.609600 9.909258 -1.755569 3.104238 0.720560 1.101334 -18.820161 1.248903 -1.156138 27.290557 -1.265904 -4.352768 -9.337643 -0.024699 -0.000000 -66.806200 -3.353900 -1.682975 -5.771844 -0.881863 -1.568948 -3.621363 -3.754966 -1.653173 1.305394 11.023699 -17.883369 -11.090145 -0.972030 -0.025551 -0.870607 0.000000 0.000000 0.000000 14.101238 14.124491 0.514327 -40.751459 8.969142 -13.933914 -179.251277 -58.860010 179.986851 1.338031 -4.367096 -0.057600 0.000965 0.613103 -0.000000 0.000000 0.000000 0.000000 0.000000 0.000000 0.000000 3.422796 -10.678620 -1.161180 24.968942 28.044716 -13.432722 -179.494996 66.041572 179.860599 -14.499178 6.076208 -0.879480 0.300132 -0.700285 -0.000000 0.000000 0.000000 0.000000 0.000000 0.000000 0.000000 
3.327877 16.945295 -0.059196 171.913441 -79.385472 -164.698483 -11.273901 1.816624 0.292530 -2.885120 18.198549 -16.888988 -1.425882 0.045976 19.711178 2.882823 19.092119 -5.904131 0.692100 0.000000 -46.152800 9.832107 -1.715722 3.358519 0.613271 2.353476 -19.385423 1.263621 -1.149951 27.434238 -1.104577 -3.494819 -9.110221 -0.037400 -0.000000 -67.172900 -2.845227 -1.529226 -5.850251 -0.733730 -1.454097 -3.639359 -3.588571 -1.540922 1.343399 11.137682 -17.754296 -11.336877 -0.949732 -0.019989 -0.943344 0.000000 0.000000 0.000000 14.406324 14.603920 0.556147 -42.689137 10.109627 -13.850754 -179.217591 -57.374416 179.990110 0.926164 -3.978085 -0.035846 0.017020 0.608505 0.000000 0.000000 0.000000 0.000000 0.000000 0.000000 0.000000 3.207161 -10.305298 -1.193416 25.335922 28.841154 -12.979255 -179.477261 65.464588 179.856440 -14.751119 6.087920 -0.898210 0.312101 -0.710864 -0.000000 0.000000 0.000000 0.000000 0.000000 0.000000 0.000000 
3.314165 16.943042 -0.029399 174.200639 -77.216375 -166.820148 -11.330494 1.838486 0.089113 -2.893934 19.319075 -16.776219 -1.450205 0.070609 19.835191 3.028377 19.983572 -6.220190 0.625200 -0.000000 -45.656600 9.759115 -1.696265 3.621946 0.511336 3.524868 -19.905179 1.298536 -1.132751 27.340260 -0.917514 -2.518870 -8.729567 -0.055700 -0.000001 -67.643400 -2.246086 -1.401068 -5.941515 -0.562099 -1.372207 -3.652383 -3.414772 -1.461496 1.406620 11.239413 -17.655926 -11.598039 -0.926523 -0.014100 -1.020235 0.000000 0.000000 0.000000 14.722881 15.083781 0.607523 -44.572110 11.142619 -13.805407 -179.190917 -55.862655 179.994615 0.374527 -3.472421 -0.011440 0.039379 0.600571 0.000000 0.000000 0.000000 0.000000 0.000000 0.000000 0.000000 2.975113 -9.985118 -1.239474 25.812690 29.698669 -12.440018 -179.464247 64.851073 179.852714 -14.945788 6.105355 -0.914451 0.323358 -0.721902 -0.000000 0.000000 0.000000 0.000000 0.000000 0.000000 0.000000 
3.295194 16.946694 0.003052 175.907478 -75.038208 -168.332091 -11.388438 1.867349 -0.089120 -2.915762 20.411419 -16.612015 -1.472068 0.078963 19.764015 3.172165 20.891394 -6.426787 0.593401 -0.000000 -45.154300 9.683208 -1.694674 3.891785 0.408600 4.596689 -20.378768 1.351659 -1.100899 27.002391 -0.708444 -1.438224 -8.195463 -0.071800 0.000000 -68.196301 -1.572804 -1.299533 -6.052710 -0.373813 -1.323849 -3.663104 -3.245247 -1.415427 1.489417 11.323638 -17.620773 -11.870122 -0.905147 -0.008187 -1.099946 0.000000 0.000000 0.000000 15.024108 15.511708 0.666213 -46.246827 12.089515 -13.788723 -179.176262 -54.307235 179.999746 -0.231305 -2.869213 0.009328 0.065567 0.588897 0.000000 0.000000 0.000000 0.000000 0.000000 0.000000 0.000000 2.752694 -9.754042 -1.290726 26.372577 30.651535 -11.801921 -179.461377 64.228309 179.849494 -15.083275 6.135291 -0.928999 0.334210 -0.733530 -0.000000 0.000000 0.000000 0.000000 0.000000 0.000000 0.000000 
3.271051 16.956366 0.036847 177.188813 -72.866794 -169.389547 -11.452852 1.908105 -0.238307 -2.965348 21.467826 -16.399653 -1.492959 0.071441 19.486552 3.310781 21.798410 -6.511446 0.605699 -0.000000 -44.661200 9.601320 -1.708097 4.165228 0.296640 5.561753 -20.800254 1.420405 -1.052220 26.421235 -0.482246 -0.271420 -7.512803 -0.076100 -0.000001 -68.812500 -0.842377 -1.227706 -6.184680 -0.175446 -1.311470 -3.672693 -3.091844 -1.404908 1.586438 11.384389 -17.650780 -12.147903 -0.888672 -0.002585 -1.180928 0.000000 0.000000 0.000000 15.291605 15.872000 0.730623 -47.561824 12.923252 -13.769506 -179.174254 -52.711268 -179.995156 -0.805844 -2.205986 0.021969 0.092409 0.573949 0.000000 0.000000 0.000000 0.000000 0.000000 0.000000 0.000000 2.558435 -9.619828 -1.341727 26.994412 31.713900 -11.056379 -179.472119 63.614837 179.846834 -15.164755 6.184628 -0.942954 0.344774 -0.745852 -0.000000 0.000000 0.000000 0.000000 0.000000 0.000000 0.000000 
3.242315 16.971836 0.070623 178.146071 -70.713871 -170.095912 -11.527502 1.963873 -0.357465 -3.053136 22.492334 -16.148758 -1.514961 0.048678 19.000508 3.440086 22.683065 -6.467367 0.669999 -0.000000 -44.194900 9.510976 -1.734670 4.443129 0.171502 6.429270 -21.168829 1.502020 -0.985413 25.603905 -0.245757 0.952055 -6.692380 -0.059200 -0.000001 -69.465500 -0.068254 -1.185546 -6.340802 0.027345 -1.334735 -3.683399 -2.965657 -1.429186 1.690247 11.417784 -17.749017 -12.425021 -0.879983 0.002364 -1.261391 0.000000 0.000000 0.000000 15.517720 16.142872 0.796673 -48.375906 13.608614 -13.711484 -179.184258 -51.083824 -179.990758 -1.272467 -1.529709 0.025301 0.116644 0.556742 0.000000 0.000000 0.000000 0.000000 0.000000 0.000000 0.000000 2.412284 -9.591041 -1.384419 27.643246 32.899870 -10.201484 -179.500052 63.031974 179.844730 -15.196369 6.257491 -0.957311 0.355301 -0.758957 -0.000000 0.000000 0.000000 0.000000 0.000000 0.000000 0.000000 
3.209725 16.992517 0.103217 178.857205 -68.587857 -170.530266 -11.615603 2.035972 -0.449076 -3.183503 23.501000 -15.871312 -1.540730 0.011691 18.312495 3.555072 23.518455 -6.293302 0.790600 -0.000000 -43.774400 9.409638 -1.773857 4.728506 0.032512 7.221052 -21.484418 1.594062 -0.900171 24.563860 -0.006626 2.195754 -5.750066 -0.013200 -0.000001 -70.126000 0.737887 -1.169169 -6.524331 0.229441 -1.389580 -3.697271 -2.876846 -1.483579 1.793920 11.423068 -17.912059 -12.692388 -0.881184 0.006357 -1.338973 0.000000 0.000000 0.000000 15.708764 16.310183 0.858425 -48.568615 14.075909 -13.576724 -179.203426 -49.463619 -179.987654 -1.571440 -0.897546 0.021241 0.135093 0.539103 0.000000 0.000000 0.000000 0.000000 0.000000 0.000000 0.000000 2.330652 -9.672556 -1.410569 28.278987 34.211837 -9.245441 -179.547348 62.494499 179.843136 -15.188419 6.356014 -0.972868 0.366083 -0.772919 -0.000000 0.000000 0.000000 0.000000 0.000000 0.000000 0.000000 
3.174218 17.017558 0.133515 179.382430 -66.499331 -170.755093 -11.719343 2.123717 -0.517713 -3.355627 24.517610 -15.582052 -1.573086 -0.038509 17.439033 3.650361 24.274835 -5.994188 0.968200 0.000001 -43.414600 9.294930 -1.827038 5.026984 -0.118807 7.967603 -21.748362 1.694458 -0.797251 23.319846 0.227124 3.416636 -4.706785 0.066800 -0.000000 -70.766200 1.558534 -1.169678 -6.741647 0.424547 -1.466539 -3.717473 -2.833574 -1.558003 1.888812 11.408741 -18.134214 -12.933424 -0.894696 0.008938 -1.409286 0.000000 0.000000 0.000000 15.902173 16.337576 0.908146 -48.073327 14.251007 -13.353910 -179.230705 -47.924660 -179.986234 -1.675213 -0.385567 0.014212 0.145672 0.524168 -0.000000 0.000000 0.000000 0.000000 0.000000 0.000000 0.000000 2.338612 -9.867667 -1.408361 28.842059 35.631480 -8.213910 -179.614489 62.016300 179.841928 -15.156360 6.475130 -0.989820 0.377465 -0.787615 -0.000000 0.000000 0.000000 0.000000 0.000000 0.000000 0.000000 
3.137463 17.045864 0.161080 179.771990 -64.457311 -170.834106 -11.840894 2.225148 -0.572733 -3.556897 25.571897 -15.287486 -1.615083 -0.098985 16.406233 3.720438 24.920444 -5.581892 1.197300 0.000000 -43.116800 9.164455 -1.893506 5.338864 -0.275492 8.696186 -21.950718 1.801899 -0.678017 21.894382 0.449095 4.575281 -3.583651 0.181800 -0.000000 -71.358300 2.391315 -1.180295 -6.985263 0.609980 -1.559059 -3.739828 -2.845283 -1.644829 1.981124 11.373574 -18.374941 -13.134388 -0.918516 0.010195 -1.469395 0.000000 0.000000 0.000000 16.082703 16.318031 0.940299 -46.768784 13.871086 -13.020986 -179.250464 -46.624807 -179.986912 -1.545222 -0.038769 0.007847 0.144014 0.515251 -0.000000 0.000000 0.000000 0.000000 0.000000 0.000000 0.000000 2.422952 -10.163220 -1.384613 29.324982 37.129239 -7.130767 -179.694068 61.598892 179.841048 -15.105124 6.616523 -1.008574 0.388710 -0.802850 0.000000 0.000000 0.000000 0.000000 0.000000 0.000000 0.000000 
3.100831 17.076170 0.185491 -179.932483 -62.488700 -170.818036 -11.978794 2.335931 -0.620200 -3.775823 26.685350 -15.002060 -1.668494 -0.168723 15.249689 3.760412 25.424942 -5.071492 1.468600 0.000000 -42.901200 9.018135 -1.977276 5.670227 -0.433388 9.434828 -22.089564 1.914883 -0.545562 20.317638 0.652562 5.625802 -2.408266 0.327800 -0.000000 -71.885300 3.201149 -1.183588 -7.264779 0.775660 -1.647759 -3.769178 -2.915436 -1.724444 2.058930 11.347889 -18.629113 -13.256983 -0.953123 0.009494 -1.508754 0.000000 0.000000 0.000000 16.320422 16.172348 0.946606 -44.700445 12.850052 -12.672413 -179.268340 -45.741964 -179.989509 -1.223447 0.066780 0.004949 0.131013 0.517091 -0.000000 0.000000 0.000000 0.000000 0.000000 0.000000 0.000000 2.619398 -10.565195 -1.324515 29.652424 38.632888 -6.056207 -179.780226 61.246616 179.840285 -15.053980 6.765780 -1.028227 0.399858 -0.818134 -0.000000 0.000000 0.000000 0.000000 0.000000 0.000000 0.000000 
3.065980 17.107234 0.207052 -179.694371 -60.624303 -170.760187 -12.129805 2.451980 -0.668244 -3.993327 27.873164 -14.730187 -1.734915 -0.244845 14.010850 3.766690 25.762101 -4.484739 1.765900 -0.000000 -42.762700 8.858142 -2.078436 6.018944 -0.584924 10.194028 -22.152614 2.031902 -0.403283 18.625293 0.833227 6.533641 -1.207375 0.496100 0.000000 -72.333000 3.961798 -1.170605 -7.575401 0.914319 -1.721811 -3.804419 -3.046491 -1.785912 2.121132 11.358083 -18.859253 -13.264435 -0.993439 0.006801 -1.517461 0.000000 0.000000 0.000000 16.604078 15.940193 0.924958 -41.854206 10.977527 -12.414199 -179.283786 -45.530920 -179.993886 -0.732222 -0.073425 0.004125 0.106246 0.532282 -0.000000 0.000000 0.000000 0.000000 0.000000 0.000000 0.000000 2.930974 -11.056764 -1.232482 29.802313 40.058663 -5.044095 -179.858628 60.955888 179.839509 -15.009123 6.914984 -1.048094 0.409712 -0.832756 -0.000000 0.000000 0.000000 0.000000 0.000000 0.000000 0.000000 
